# xmcd CD database file
#
# Track frame offsets:
#	150
#	14256
#	32451
#	48802
#	62812
#	79346
#	93736
#	113577
#	134950
#	155427
#	174313
#	192506
#	209456
#	225306
#
# Disc length: 3226 seconds
#
# Revision: 3
# Processed by: cddbd v1.5.1PL2 Copyright (c) Steve Scherf et al.
# Submitted via: CDex 1.51
#
DISCID=b80c980e
DTITLE=Eric BIBB - A Ship Called Love
DYEAR=2005
DGENRE=Blues
TTITLE0=A ship called love
TTITLE1=Like Aretha loves to sing
TTITLE2=Right where we are
TTITLE3=Victory Voices
TTITLE4=I'll never lose you
TTITLE5=The way you are
TTITLE6=Stickin' to you
TTITLE7=Troubadour
TTITLE8=That's what I do
TTITLE9=Turning world
TTITLE10=More O' that
TTITLE11=Faded jeans
TTITLE12=When I hear the waves
TTITLE13=Praise 'n' Thanksgiving
EXTD=YEAR: 2005
EXTT0=
EXTT1=
EXTT2=
EXTT3=
EXTT4=
EXTT5=
EXTT6=
EXTT7=
EXTT8=
EXTT9=
EXTT10=
EXTT11=
EXTT12=
EXTT13=
PLAYORDER=
